<!--
  九州7県(福岡=40/佐賀=41/長崎=42/熊本=43/大分=44/宮崎=45/鹿児島=46)の簡略化シルエット。
  出典: geolonia/japanese-prefectures (https://github.com/geolonia/japanese-prefectures)
  の map-full.svg から該当7県分のみ抽出・再配置(元データは Wikipedia 日本地図.svg
  ベース、GFDL)。鹿児島は本土+近隣島嶼のみ残し、奄美・種子島・屋久島等の遠方離島群は
  レイアウト上除外(2026-07-23、決裁者フィードバック「実地図でなくスタイリッシュな
  簡略地図にしたい」への対応)。塗り色・線色は map-search.css 側で指定。
-->
<svg xmlns="http://www.w3.org/2000/svg" class="job-map-svg" viewBox="36.0 692.0 200.0 298.0">
<g class="job-map-svg__prefectures">
<polygon points="40 53 32 48 31 52 27 51 22 55 23 58 18 58 18 52 15 49 17 42 25 37 26 31 19 33 13 27 0 27 7 23 3 20 10 15 13 21 20 20 21 15 17 17 14 14 19 15 23 12 25 5 35 3 36 0 42 1 38 5 41 5 43 2 46 4 53 0 49 8 52 10 50 11 55 22 60 22 59 29 52 28 45 32 41 38 42 43 40 45 43 48" transform="translate(123.0,752.0)" data-pref="40"><title>福岡</title></polygon>
<polygon points="15 6 28 6 34 12 41 10 40 16 32 21 30 28 25 23 19 29 22 39 14 36 8 29 9 25 2 23 0 16 2 13 5 17 4 13 6 9 2 6 3 4 6 6 6 0 7 2 11 2 12 7" transform="translate(108.0,773.0)" data-pref="41"><title>佐賀</title></polygon>
<path d="M53,1 L55,0 L57,2 L54,5 L55,9 L49,15 L48,19 L51,18 L49,22 L51,21 L48,25 L48,20 L46,22 L46,19 L45,22 L42,20 L44,20 L45,15 L47,15 L45,14 L49,10 L46,8 L48,3 L52,3 L53,1 Z M46,29 L43,35 L37,36 L40,22 L41,24 L45,25 L44,22 L45,26 L48,25 L46,29 Z M67,59 L68,61 L64,63 L60,59 L62,59 L61,56 L64,53 L67,55 L66,57 L68,58 L67,59 Z M28,110 L25,115 L26,110 L23,107 L26,106 L26,102 L28,102 L30,94 L28,105 L33,106 L30,108 L28,106 L28,110 Z M24,112 L21,111 L21,109 L23,111 L22,108 L24,112 Z M19,113 L20,110 L19,116 L16,111 L19,113 Z M6,118 L9,117 L10,119 L12,115 L16,125 L9,124 L9,129 L0,126 L1,124 L3,126 L4,125 L2,125 L5,122 L4,116 L6,118 Z M65,80 L62,81 L64,78 L65,80 Z M67,82 L70,84 L67,86 L67,82 Z M29,88 L31,85 L33,87 L29,88 Z M54,76 L51,77 L55,74 L54,76 Z M66,86 L64,89 L66,96 L73,98 L72,102 L78,109 L86,112 L79,117 L92,118 L94,123 L92,130 L82,134 L80,128 L85,124 L84,122 L79,121 L71,123 L68,129 L60,134 L64,129 L63,126 L65,127 L67,123 L64,125 L63,118 L59,117 L56,111 L59,100 L63,104 L62,108 L63,106 L66,108 L64,115 L75,118 L71,112 L72,107 L69,103 L66,105 L65,99 L62,99 L62,97 L58,100 L60,98 L57,96 L57,93 L57,95 L53,93 L57,87 L54,86 L55,83 L60,82 L60,85 L65,84 L66,86 Z M49,88 L48,92 L42,94 L47,91 L45,89 L48,84 L52,84 L54,81 L55,84 L49,88 Z M15,115 L15,113 L18,116 L15,118 L15,115 Z M64,101 L63,104 L62,101 L64,98 L64,101 Z" transform="translate(44.0,700.0)" data-pref="42"><title>長崎</title></path>
<path d="M8,37 L13,38 L13,48 L5,57 L1,58 L1,52 L5,51 L0,50 L4,40 L3,37 L8,37 Z M20,47 L14,47 L12,43 L19,39 L26,39 L23,47 L20,47 Z M24,34 L26,34 L26,38 L23,38 L24,34 Z M38,67 L33,61 L24,65 L19,61 L32,46 L30,40 L32,41 L31,39 L37,34 L26,34 L34,28 L35,23 L27,15 L26,10 L31,10 L30,7 L35,3 L39,4 L40,0 L48,5 L56,10 L58,7 L57,1 L63,1 L70,14 L69,20 L73,24 L69,24 L60,38 L55,40 L55,47 L60,54 L56,59 L59,65 L38,67 Z" transform="translate(115.0,800.0)" data-pref="43"><title>熊本</title></path>
<polygon points="0 34 3 29 0 26 2 24 1 19 5 13 12 9 19 10 20 3 33 7 38 0 47 4 49 10 46 18 43 17 43 20 35 22 36 26 40 28 56 27 50 36 56 36 53 38 56 40 61 38 62 41 57 41 55 45 65 49 59 49 61 51 57 54 60 55 54 56 54 60 52 60 52 55 48 54 45 58 37 58 32 53 27 54 25 53 21 49 22 43 15 30 9 30 10 36 8 39" transform="translate(163.0,771.0)" data-pref="44"><title>大分</title></polygon>
<polygon points="36 0 38 1 43 0 48 5 56 5 59 1 63 2 63 7 65 7 54 17 53 21 56 22 52 23 51 25 53 26 47 34 41 51 39 74 34 79 32 91 27 89 22 84 24 81 24 74 17 73 14 64 9 62 10 57 5 52 0 45 1 43 22 41 19 35 23 30 18 23 18 16 23 14 32 0" transform="translate(152.0,824.0)" data-pref="45"><title>宮崎</title></polygon>
<polygon points="23 949 26 951 23 952" transform="translate(96.0,17.0)" data-pref="46"><title>鹿児島</title></polygon>
<polygon points="33 960 32 954 39 950 48 956 47 961 41 965 35 964" transform="translate(96.0,17.0)" data-pref="46"><title>鹿児島</title></polygon>
<polygon points="64 953 64 958 59 959 58 952 62 949 63 939 70 929 71 938" transform="translate(96.0,17.0)" data-pref="46"><title>鹿児島</title></polygon>
<polygon points="38 844 43 848 52 844 57 850 56 852 61 859 66 864 65 869 70 871 73 880 80 881 80 888 78 891 75 890 70 896 75 899 73 903 76 902 69 905 66 910 50 918 50 913 55 910 59 898 53 889 54 884 48 881 53 879 54 883 57 884 61 878 54 872 50 874 44 887 46 898 51 901 49 906 43 907 40 901 27 901 28 897 25 896 27 894 22 890 31 890 35 880 32 871 27 867 30 860 28 848 31 846 35 848" transform="translate(96.0,17.0)" data-pref="46"><title>鹿児島</title></polygon>
<polygon points="31 837 34 836 33 838" transform="translate(96.0,17.0)" data-pref="46"><title>鹿児島</title></polygon>
<polygon points="27 848 24 842 29 840 30 844" transform="translate(96.0,17.0)" data-pref="46"><title>鹿児島</title></polygon>
<polygon points="4 868 6 865 7 867 2 875 0 874" transform="translate(96.0,17.0)" data-pref="46"><title>鹿児島</title></polygon>
<polygon points="12 864 9 861 14 861" transform="translate(96.0,17.0)" data-pref="46"><title>鹿児島</title></polygon>
</g>
</svg>
